<mxfile host="Electron" modified="2024-04-23T19:32:47.171Z" agent="Mozilla/5.0 (Macintosh; Intel Mac OS X 10_15_7) AppleWebKit/537.36 (KHTML, like Gecko) draw.io/23.1.5 Chrome/120.0.6099.109 Electron/28.1.0 Safari/537.36" etag="y30uQ0d3HniWR9YbfhoR" version="23.1.5" type="device">
  <diagram name="Page-1" id="u5EL-flUZFRyIjGby143">
    <mxGraphModel dx="1304" dy="825" grid="1" gridSize="10" guides="1" tooltips="1" connect="1" arrows="1" fold="1" page="1" pageScale="1" pageWidth="950" pageHeight="680" math="0" shadow="0">
      <root>
        <mxCell id="0" />
        <mxCell id="1" parent="0" />
        <mxCell id="UDgk8hJK_uCCzuhmKTtT-19" value="" style="rounded=1;whiteSpace=wrap;html=1;fillColor=#cce5ff;strokeWidth=4;strokeColor=none;" vertex="1" parent="1">
          <mxGeometry x="20" y="419" width="910" height="250" as="geometry" />
        </mxCell>
        <mxCell id="r3vE6sDObE7UuL9p5Y6n-1" value="" style="rounded=1;whiteSpace=wrap;html=1;fillColor=#cce5ff;strokeWidth=4;strokeColor=none;" parent="1" vertex="1">
          <mxGeometry x="20" y="14" width="910" height="250" as="geometry" />
        </mxCell>
        <mxCell id="UDgk8hJK_uCCzuhmKTtT-9" value="" style="rounded=1;whiteSpace=wrap;html=1;fontSize=26;fillColor=#B5739D;strokeColor=default;verticalAlign=middle;arcSize=0;fontColor=#FFFFFF;strokeWidth=4;" vertex="1" parent="1">
          <mxGeometry x="290" y="112" width="420" height="129" as="geometry" />
        </mxCell>
        <mxCell id="UDgk8hJK_uCCzuhmKTtT-30" value="&lt;b style=&quot;border-color: var(--border-color); font-family: Helvetica; font-size: 26px; font-style: normal; font-variant-ligatures: normal; font-variant-caps: normal; letter-spacing: normal; orphans: 2; text-indent: 0px; text-transform: none; widows: 2; word-spacing: 0px; -webkit-text-stroke-width: 0px; text-decoration-thickness: initial; text-decoration-style: initial; text-decoration-color: initial;&quot;&gt;Gradient Buffer&lt;/b&gt;" style="text;whiteSpace=wrap;html=1;fontSize=26;fontColor=#FFFFFF;labelBackgroundColor=none;align=center;verticalAlign=middle;" vertex="1" parent="1">
          <mxGeometry x="390" y="196" width="220" height="35" as="geometry" />
        </mxCell>
        <mxCell id="UDgk8hJK_uCCzuhmKTtT-1" value="&lt;span style=&quot;font-family: Helvetica; font-style: normal; font-variant-ligatures: normal; font-variant-caps: normal; letter-spacing: normal; orphans: 2; text-indent: 0px; text-transform: none; widows: 2; word-spacing: 0px; -webkit-text-stroke-width: 0px; text-decoration-thickness: initial; text-decoration-style: initial; text-decoration-color: initial; float: none; font-size: 32px; display: inline !important;&quot;&gt;&lt;font style=&quot;font-size: 32px;&quot;&gt;&lt;b&gt;DDP&lt;/b&gt;&lt;br&gt;&lt;/font&gt;&lt;/span&gt;" style="text;whiteSpace=wrap;html=1;align=center;verticalAlign=middle;fontColor=#333333;fontSize=32;" vertex="1" parent="1">
          <mxGeometry x="60" y="186" width="100" height="40" as="geometry" />
        </mxCell>
        <mxCell id="UDgk8hJK_uCCzuhmKTtT-2" value="&lt;b&gt;Forward&lt;/b&gt;" style="rounded=1;whiteSpace=wrap;html=1;fontSize=26;fillColor=#647687;strokeColor=default;verticalAlign=middle;arcSize=0;fontColor=#ffffff;strokeWidth=4;" vertex="1" parent="1">
          <mxGeometry x="60" y="36" width="120" height="60" as="geometry" />
        </mxCell>
        <mxCell id="UDgk8hJK_uCCzuhmKTtT-3" value="&lt;b&gt;Backward&lt;/b&gt;" style="rounded=1;whiteSpace=wrap;html=1;fontSize=26;fillColor=#1ba1e2;strokeColor=#000000;verticalAlign=middle;arcSize=0;fontColor=#ffffff;strokeWidth=4;" vertex="1" parent="1">
          <mxGeometry x="300" y="36" width="200" height="60" as="geometry" />
        </mxCell>
        <mxCell id="UDgk8hJK_uCCzuhmKTtT-6" value="&lt;b&gt;Forward&lt;/b&gt;" style="rounded=1;whiteSpace=wrap;html=1;fontSize=26;fillColor=#647687;strokeColor=default;verticalAlign=middle;arcSize=0;fontColor=#ffffff;strokeWidth=4;" vertex="1" parent="1">
          <mxGeometry x="180" y="36" width="120" height="60" as="geometry" />
        </mxCell>
        <mxCell id="UDgk8hJK_uCCzuhmKTtT-8" value="&lt;b&gt;AllReduce&lt;/b&gt;&lt;br&gt;or&lt;br&gt;&lt;b&gt;ReduceScatter&lt;/b&gt;" style="rounded=1;whiteSpace=wrap;html=1;fontSize=26;fillColor=#f0a30a;strokeColor=default;verticalAlign=middle;arcSize=0;fontColor=#FFFFFF;strokeWidth=4;" vertex="1" parent="1">
          <mxGeometry x="500" y="281" width="200" height="120" as="geometry" />
        </mxCell>
        <mxCell id="UDgk8hJK_uCCzuhmKTtT-11" value="&lt;b&gt;Backward&lt;/b&gt;" style="rounded=1;whiteSpace=wrap;html=1;fontSize=26;fillColor=#1ba1e2;strokeColor=#000000;verticalAlign=middle;arcSize=0;fontColor=#ffffff;strokeWidth=4;" vertex="1" parent="1">
          <mxGeometry x="500" y="36" width="200" height="60" as="geometry" />
        </mxCell>
        <mxCell id="UDgk8hJK_uCCzuhmKTtT-13" value="&lt;b&gt;Bucket&lt;/b&gt;" style="rounded=1;whiteSpace=wrap;html=1;fontSize=26;fillColor=#B5739D;strokeColor=default;verticalAlign=middle;arcSize=0;fontColor=#FFFFFF;strokeWidth=4;" vertex="1" parent="1">
          <mxGeometry x="300" y="126" width="200" height="60" as="geometry" />
        </mxCell>
        <mxCell id="UDgk8hJK_uCCzuhmKTtT-14" value="&lt;b&gt;Bucket&lt;/b&gt;" style="rounded=1;whiteSpace=wrap;html=1;fontSize=26;fillColor=#B5739D;strokeColor=default;verticalAlign=middle;arcSize=0;fontColor=#FFFFFF;strokeWidth=4;" vertex="1" parent="1">
          <mxGeometry x="500" y="126" width="200" height="60" as="geometry" />
        </mxCell>
        <mxCell id="UDgk8hJK_uCCzuhmKTtT-15" value="&lt;b&gt;AllReduce&lt;/b&gt;&lt;br&gt;or&lt;br&gt;&lt;b&gt;ReduceScatter&lt;/b&gt;" style="rounded=1;whiteSpace=wrap;html=1;fontSize=26;fillColor=#f0a30a;strokeColor=default;verticalAlign=middle;arcSize=0;fontColor=#FFFFFF;strokeWidth=4;" vertex="1" parent="1">
          <mxGeometry x="700" y="281" width="200" height="120" as="geometry" />
        </mxCell>
        <mxCell id="r3vE6sDObE7UuL9p5Y6n-29" style="rounded=0;orthogonalLoop=1;jettySize=auto;html=1;entryX=0.5;entryY=0;entryDx=0;entryDy=0;strokeColor=#808080;strokeWidth=4;exitX=0.5;exitY=1;exitDx=0;exitDy=0;fontColor=#0073F7;fillColor=#eeeeee;shadow=0;endArrow=block;endFill=1;" parent="1" source="UDgk8hJK_uCCzuhmKTtT-3" target="UDgk8hJK_uCCzuhmKTtT-13" edge="1">
          <mxGeometry relative="1" as="geometry">
            <mxPoint x="409.9999999999998" y="391.0000000000001" as="sourcePoint" />
            <mxPoint x="410.30999999999995" y="738.6900000000002" as="targetPoint" />
          </mxGeometry>
        </mxCell>
        <mxCell id="UDgk8hJK_uCCzuhmKTtT-16" style="rounded=0;orthogonalLoop=1;jettySize=auto;html=1;entryX=0.5;entryY=0;entryDx=0;entryDy=0;strokeColor=#808080;strokeWidth=4;exitX=0.5;exitY=1;exitDx=0;exitDy=0;fontColor=#0073F7;fillColor=#eeeeee;shadow=0;endArrow=block;endFill=1;" edge="1" parent="1" source="UDgk8hJK_uCCzuhmKTtT-13" target="UDgk8hJK_uCCzuhmKTtT-8">
          <mxGeometry relative="1" as="geometry">
            <mxPoint x="410" y="106" as="sourcePoint" />
            <mxPoint x="410" y="136" as="targetPoint" />
          </mxGeometry>
        </mxCell>
        <mxCell id="UDgk8hJK_uCCzuhmKTtT-17" style="rounded=0;orthogonalLoop=1;jettySize=auto;html=1;entryX=0.5;entryY=0;entryDx=0;entryDy=0;strokeColor=#808080;strokeWidth=4;exitX=0.5;exitY=1;exitDx=0;exitDy=0;fontColor=#0073F7;fillColor=#eeeeee;shadow=0;endArrow=block;endFill=1;" edge="1" parent="1" source="UDgk8hJK_uCCzuhmKTtT-11" target="UDgk8hJK_uCCzuhmKTtT-14">
          <mxGeometry relative="1" as="geometry">
            <mxPoint x="410" y="196" as="sourcePoint" />
            <mxPoint x="610" y="281" as="targetPoint" />
          </mxGeometry>
        </mxCell>
        <mxCell id="UDgk8hJK_uCCzuhmKTtT-18" style="rounded=0;orthogonalLoop=1;jettySize=auto;html=1;entryX=0.5;entryY=0;entryDx=0;entryDy=0;strokeColor=#808080;strokeWidth=4;exitX=0.5;exitY=1;exitDx=0;exitDy=0;fontColor=#0073F7;fillColor=#eeeeee;shadow=0;endArrow=block;endFill=1;" edge="1" parent="1" source="UDgk8hJK_uCCzuhmKTtT-14" target="UDgk8hJK_uCCzuhmKTtT-15">
          <mxGeometry relative="1" as="geometry">
            <mxPoint x="610" y="106" as="sourcePoint" />
            <mxPoint x="610" y="136" as="targetPoint" />
          </mxGeometry>
        </mxCell>
        <mxCell id="UDgk8hJK_uCCzuhmKTtT-20" value="" style="rounded=1;whiteSpace=wrap;html=1;fontSize=26;fillColor=#B5739D;strokeColor=default;verticalAlign=top;arcSize=0;fontColor=#FFFFFF;strokeWidth=4;" vertex="1" parent="1">
          <mxGeometry x="290" y="441" width="420" height="129" as="geometry" />
        </mxCell>
        <mxCell id="UDgk8hJK_uCCzuhmKTtT-21" value="&lt;span style=&quot;font-family: Helvetica; font-style: normal; font-variant-ligatures: normal; font-variant-caps: normal; letter-spacing: normal; orphans: 2; text-indent: 0px; text-transform: none; widows: 2; word-spacing: 0px; -webkit-text-stroke-width: 0px; text-decoration-thickness: initial; text-decoration-style: initial; text-decoration-color: initial; float: none; font-size: 32px; display: inline !important;&quot;&gt;&lt;font style=&quot;font-size: 32px;&quot;&gt;&lt;b&gt;DDP&lt;/b&gt;&lt;br&gt;&lt;/font&gt;&lt;/span&gt;" style="text;whiteSpace=wrap;html=1;align=center;verticalAlign=middle;fontColor=#333333;fontSize=32;" vertex="1" parent="1">
          <mxGeometry x="60" y="451" width="100" height="40" as="geometry" />
        </mxCell>
        <mxCell id="UDgk8hJK_uCCzuhmKTtT-22" value="&lt;b&gt;Forward&lt;/b&gt;" style="rounded=1;whiteSpace=wrap;html=1;fontSize=26;fillColor=#647687;strokeColor=default;verticalAlign=middle;arcSize=0;fontColor=#ffffff;strokeWidth=4;" vertex="1" parent="1">
          <mxGeometry x="60" y="587" width="120" height="60" as="geometry" />
        </mxCell>
        <mxCell id="UDgk8hJK_uCCzuhmKTtT-23" value="&lt;b&gt;Backward&lt;/b&gt;" style="rounded=1;whiteSpace=wrap;html=1;fontSize=26;fillColor=#1ba1e2;strokeColor=#000000;verticalAlign=middle;arcSize=0;fontColor=#ffffff;strokeWidth=4;" vertex="1" parent="1">
          <mxGeometry x="300" y="587" width="200" height="60" as="geometry" />
        </mxCell>
        <mxCell id="UDgk8hJK_uCCzuhmKTtT-24" value="&lt;b&gt;Forward&lt;/b&gt;" style="rounded=1;whiteSpace=wrap;html=1;fontSize=26;fillColor=#647687;strokeColor=default;verticalAlign=middle;arcSize=0;fontColor=#ffffff;strokeWidth=4;" vertex="1" parent="1">
          <mxGeometry x="180" y="587" width="120" height="60" as="geometry" />
        </mxCell>
        <mxCell id="UDgk8hJK_uCCzuhmKTtT-25" value="&lt;b&gt;Backward&lt;/b&gt;" style="rounded=1;whiteSpace=wrap;html=1;fontSize=26;fillColor=#1ba1e2;strokeColor=#000000;verticalAlign=middle;arcSize=0;fontColor=#ffffff;strokeWidth=4;" vertex="1" parent="1">
          <mxGeometry x="500" y="587" width="200" height="60" as="geometry" />
        </mxCell>
        <mxCell id="UDgk8hJK_uCCzuhmKTtT-26" value="&lt;b&gt;Bucket&lt;/b&gt;" style="rounded=1;whiteSpace=wrap;html=1;fontSize=26;fillColor=#B5739D;strokeColor=default;verticalAlign=middle;arcSize=0;fontColor=#FFFFFF;strokeWidth=4;" vertex="1" parent="1">
          <mxGeometry x="300" y="494" width="200" height="60" as="geometry" />
        </mxCell>
        <mxCell id="UDgk8hJK_uCCzuhmKTtT-27" value="&lt;b&gt;Bucket&lt;/b&gt;" style="rounded=1;whiteSpace=wrap;html=1;fontSize=26;fillColor=#B5739D;strokeColor=default;verticalAlign=middle;arcSize=0;fontColor=#FFFFFF;strokeWidth=4;" vertex="1" parent="1">
          <mxGeometry x="500" y="494" width="200" height="60" as="geometry" />
        </mxCell>
        <mxCell id="UDgk8hJK_uCCzuhmKTtT-28" style="rounded=0;orthogonalLoop=1;jettySize=auto;html=1;strokeColor=#808080;strokeWidth=4;exitX=0.5;exitY=0;exitDx=0;exitDy=0;fontColor=#0073F7;fillColor=#eeeeee;shadow=0;endArrow=block;endFill=1;" edge="1" parent="1" source="UDgk8hJK_uCCzuhmKTtT-23" target="UDgk8hJK_uCCzuhmKTtT-26">
          <mxGeometry relative="1" as="geometry">
            <mxPoint x="409.9999999999998" y="720.0000000000001" as="sourcePoint" />
            <mxPoint x="410.30999999999995" y="1067.69" as="targetPoint" />
          </mxGeometry>
        </mxCell>
        <mxCell id="UDgk8hJK_uCCzuhmKTtT-29" style="rounded=0;orthogonalLoop=1;jettySize=auto;html=1;entryX=0.5;entryY=1;entryDx=0;entryDy=0;strokeColor=#808080;strokeWidth=4;exitX=0.5;exitY=0;exitDx=0;exitDy=0;fontColor=#0073F7;fillColor=#eeeeee;shadow=0;endArrow=block;endFill=1;" edge="1" parent="1" source="UDgk8hJK_uCCzuhmKTtT-25" target="UDgk8hJK_uCCzuhmKTtT-27">
          <mxGeometry relative="1" as="geometry">
            <mxPoint x="410" y="525" as="sourcePoint" />
            <mxPoint x="610" y="610" as="targetPoint" />
          </mxGeometry>
        </mxCell>
        <mxCell id="UDgk8hJK_uCCzuhmKTtT-31" value="&lt;b style=&quot;border-color: var(--border-color); font-family: Helvetica; font-size: 26px; font-style: normal; font-variant-ligatures: normal; font-variant-caps: normal; letter-spacing: normal; orphans: 2; text-indent: 0px; text-transform: none; widows: 2; word-spacing: 0px; -webkit-text-stroke-width: 0px; text-decoration-thickness: initial; text-decoration-style: initial; text-decoration-color: initial;&quot;&gt;Gradient Buffer&lt;/b&gt;" style="text;whiteSpace=wrap;html=1;fontSize=26;fontColor=#FFFFFF;labelBackgroundColor=none;align=center;verticalAlign=middle;" vertex="1" parent="1">
          <mxGeometry x="390" y="450.5" width="220" height="35" as="geometry" />
        </mxCell>
        <mxCell id="UDgk8hJK_uCCzuhmKTtT-33" style="rounded=0;orthogonalLoop=1;jettySize=auto;html=1;entryX=0.5;entryY=1;entryDx=0;entryDy=0;strokeColor=#808080;strokeWidth=4;exitX=0.5;exitY=0;exitDx=0;exitDy=0;fontColor=#0073F7;fillColor=#eeeeee;shadow=0;endArrow=block;endFill=1;" edge="1" parent="1" source="UDgk8hJK_uCCzuhmKTtT-26" target="UDgk8hJK_uCCzuhmKTtT-8">
          <mxGeometry relative="1" as="geometry">
            <mxPoint x="410" y="196" as="sourcePoint" />
            <mxPoint x="610" y="291" as="targetPoint" />
          </mxGeometry>
        </mxCell>
        <mxCell id="UDgk8hJK_uCCzuhmKTtT-34" style="rounded=0;orthogonalLoop=1;jettySize=auto;html=1;entryX=0.5;entryY=1;entryDx=0;entryDy=0;strokeColor=#808080;strokeWidth=4;exitX=0.5;exitY=0;exitDx=0;exitDy=0;fontColor=#0073F7;fillColor=#eeeeee;shadow=0;endArrow=block;endFill=1;" edge="1" parent="1" source="UDgk8hJK_uCCzuhmKTtT-27" target="UDgk8hJK_uCCzuhmKTtT-15">
          <mxGeometry relative="1" as="geometry">
            <mxPoint x="410" y="504" as="sourcePoint" />
            <mxPoint x="610" y="411" as="targetPoint" />
          </mxGeometry>
        </mxCell>
      </root>
    </mxGraphModel>
  </diagram>
</mxfile>
